<svg width="62" height="50" viewBox="0 0 62 50" fill="none" xmlns="http://www.w3.org/2000/svg">
<path d="M60.1884 23.1738L54.5212 17.4609C53.3587 16.2891 51.7797 15.6348 50.1328 15.6348H46.5V6.25C46.5 4.52148 45.1147 3.125 43.4 3.125H3.1C1.38531 3.125 0 4.52148 0 6.25V39.0625C0 43.3789 3.46812 46.875 7.75 46.875C10.2978 46.875 12.5356 45.6152 13.95 43.7109C15.3644 45.625 17.6022 46.875 20.15 46.875C24.4319 46.875 27.9 43.3789 27.9 39.0625C27.9 38.5254 27.8419 38.0078 27.745 37.5H43.555C43.4484 38.0078 43.4 38.5254 43.4 39.0625C43.4 43.3789 46.8681 46.875 51.15 46.875C55.4319 46.875 58.9 43.3789 58.9 39.0625C58.9 38.5254 58.8419 38.0078 58.745 37.5H60.45C61.3025 37.5 62 36.7969 62 35.9375V27.5879C62 25.9277 61.3509 24.3457 60.1884 23.1738ZM7.75 42.1875C6.045 42.1875 4.65 40.7812 4.65 39.0625C4.65 37.3438 6.045 35.9375 7.75 35.9375C9.455 35.9375 10.85 37.3438 10.85 39.0625C10.85 40.7812 9.455 42.1875 7.75 42.1875ZM20.15 42.1875C18.445 42.1875 17.05 40.7812 17.05 39.0625C17.05 37.3438 18.445 35.9375 20.15 35.9375C21.855 35.9375 23.25 37.3438 23.25 39.0625C23.25 40.7812 21.855 42.1875 20.15 42.1875ZM46.5 20.3125H50.1328C50.5494 20.3125 50.9369 20.4785 51.2275 20.7715L55.4222 25H46.5V20.3125ZM51.15 42.1875C49.445 42.1875 48.05 40.7812 48.05 39.0625C48.05 37.3438 49.445 35.9375 51.15 35.9375C52.855 35.9375 54.25 37.3438 54.25 39.0625C54.25 40.7812 52.855 42.1875 51.15 42.1875Z" fill="#E11383"/>
</svg>
