<svg width="56" height="50" viewBox="0 0 56 50" fill="none" xmlns="http://www.w3.org/2000/svg">
<path d="M0 42.1875C0 44.7754 2.09028 46.875 4.66667 46.875H51.3333C53.9097 46.875 56 44.7754 56 42.1875V25H0V42.1875ZM18.6667 35.5469C18.6667 34.9023 19.1917 34.375 19.8333 34.375H33.0556C33.6972 34.375 34.2222 34.9023 34.2222 35.5469V39.4531C34.2222 40.0977 33.6972 40.625 33.0556 40.625H19.8333C19.1917 40.625 18.6667 40.0977 18.6667 39.4531V35.5469ZM6.22222 35.5469C6.22222 34.9023 6.74722 34.375 7.38889 34.375H14.3889C15.0306 34.375 15.5556 34.9023 15.5556 35.5469V39.4531C15.5556 40.0977 15.0306 40.625 14.3889 40.625H7.38889C6.74722 40.625 6.22222 40.0977 6.22222 39.4531V35.5469ZM56 7.8125V12.5H0V7.8125C0 5.22461 2.09028 3.125 4.66667 3.125H51.3333C53.9097 3.125 56 5.22461 56 7.8125Z" fill="#E11383"/>
</svg>
